<mxfile host="app.diagrams.net" modified="2021-04-21T10:46:17.295Z" agent="5.0 (Windows NT 10.0; Win64; x64) AppleWebKit/537.36 (KHTML, like Gecko) Chrome/89.0.4389.128 Safari/537.36" etag="9eD9c5xqj6LmDBCnqio2" version="14.6.3" type="github">
  <diagram id="0j4IogzqFedq4WT-UHp4" name="Page-1">
    <mxGraphModel dx="1065" dy="457" grid="1" gridSize="10" guides="1" tooltips="1" connect="1" arrows="1" fold="1" page="1" pageScale="1" pageWidth="827" pageHeight="1169" math="0" shadow="0">
      <root>
        <mxCell id="0" />
        <mxCell id="1" parent="0" />
        <mxCell id="UP6HUUTgEpxRLOeq6m76-4" value="&lt;font style=&quot;font-size: 9px&quot;&gt;庞大的社群用户基础&lt;br&gt;与阿里、腾讯等大企业的合作&lt;br&gt;学校的创业支持&lt;/font&gt;" style="rounded=0;whiteSpace=wrap;html=1;" vertex="1" parent="1">
          <mxGeometry x="176.67" y="160.25" width="183.33" height="108.37" as="geometry" />
        </mxCell>
        <mxCell id="UP6HUUTgEpxRLOeq6m76-1" value="①企业：阿里巴巴、腾讯&lt;br&gt;②高校支持：武汉大学信息管理学院&lt;br&gt;③本地合作伙伴：武汉多个高校供需群、外卖平台等" style="rounded=0;whiteSpace=wrap;html=1;align=left;" vertex="1" parent="1">
          <mxGeometry x="40" y="53.44827586206897" width="136.66666666666666" height="215.17241379310346" as="geometry" />
        </mxCell>
        <mxCell id="UP6HUUTgEpxRLOeq6m76-2" value="人力成本&lt;br&gt;推广营销成本&lt;br&gt;社群维护成本&lt;br&gt;技术开发成本" style="rounded=0;whiteSpace=wrap;html=1;" vertex="1" parent="1">
          <mxGeometry x="40" y="268.62068965517244" width="409.99999999999994" height="161.3793103448276" as="geometry" />
        </mxCell>
        <mxCell id="UP6HUUTgEpxRLOeq6m76-3" value="" style="rounded=0;whiteSpace=wrap;html=1;" vertex="1" parent="1">
          <mxGeometry x="176.66666666666666" y="53.44827586206897" width="182.2222222222222" height="107.58620689655173" as="geometry" />
        </mxCell>
        <mxCell id="UP6HUUTgEpxRLOeq6m76-5" value="" style="rounded=0;whiteSpace=wrap;html=1;" vertex="1" parent="1">
          <mxGeometry x="358.8888888888889" y="53.44827586206897" width="159.44444444444446" height="215.17241379310346" as="geometry" />
        </mxCell>
        <mxCell id="UP6HUUTgEpxRLOeq6m76-6" value="社群推广服务收入&lt;br&gt;电商销售利润&lt;br&gt;会员入会费" style="rounded=0;whiteSpace=wrap;html=1;" vertex="1" parent="1">
          <mxGeometry x="449.99999999999994" y="268.62068965517244" width="409.99999999999994" height="161.3793103448276" as="geometry" />
        </mxCell>
        <mxCell id="UP6HUUTgEpxRLOeq6m76-7" value="" style="rounded=0;whiteSpace=wrap;html=1;" vertex="1" parent="1">
          <mxGeometry x="518.3333333333333" y="53.44827586206897" width="170.83333333333334" height="94.13793103448276" as="geometry" />
        </mxCell>
        <mxCell id="UP6HUUTgEpxRLOeq6m76-8" value="" style="rounded=0;whiteSpace=wrap;html=1;" vertex="1" parent="1">
          <mxGeometry x="518.3333333333333" y="147.58620689655174" width="170.83333333333334" height="121.0344827586207" as="geometry" />
        </mxCell>
        <mxCell id="UP6HUUTgEpxRLOeq6m76-9" value="" style="rounded=0;whiteSpace=wrap;html=1;" vertex="1" parent="1">
          <mxGeometry x="689.1666666666665" y="53.44827586206897" width="170.83333333333334" height="215.17241379310346" as="geometry" />
        </mxCell>
        <mxCell id="UP6HUUTgEpxRLOeq6m76-10" value="&lt;h1&gt;&lt;font style=&quot;font-size: 14px&quot;&gt;1. 客户细分&lt;/font&gt;&lt;/h1&gt;&lt;div&gt;&lt;span style=&quot;font-size: 10px&quot;&gt;①希望购买到便宜好货的在校大学生群体。&lt;/span&gt;&lt;/div&gt;&lt;div&gt;&lt;span style=&quot;font-size: 10px&quot;&gt;②对性价比要求较高的白领、宝妈群体。&lt;/span&gt;&lt;/div&gt;&lt;div&gt;&lt;span style=&quot;font-size: 10px&quot;&gt;③收入水平较低，希望获取廉价优质商品的农村居民。&lt;/span&gt;&lt;/div&gt;" style="text;html=1;strokeColor=none;fillColor=none;spacing=5;spacingTop=-20;whiteSpace=wrap;overflow=hidden;rounded=0;" vertex="1" parent="1">
          <mxGeometry x="689.1666666666665" y="40" width="170.83333333333334" height="201.72413793103448" as="geometry" />
        </mxCell>
        <mxCell id="UP6HUUTgEpxRLOeq6m76-12" value="&lt;font style=&quot;font-size: 14px&quot;&gt;&lt;b&gt;4. 客户关系&lt;/b&gt;&lt;/font&gt;" style="text;html=1;strokeColor=none;fillColor=none;align=center;verticalAlign=middle;whiteSpace=wrap;rounded=0;" vertex="1" parent="1">
          <mxGeometry x="518.3333333333333" y="53.44827586206897" width="102.49999999999999" height="26.896551724137932" as="geometry" />
        </mxCell>
        <mxCell id="UP6HUUTgEpxRLOeq6m76-13" value="供需信息整合平台&lt;br&gt;优选特价电商平台" style="text;html=1;strokeColor=none;fillColor=none;align=center;verticalAlign=middle;whiteSpace=wrap;rounded=0;" vertex="1" parent="1">
          <mxGeometry x="518.3333333333333" y="80.34482758620689" width="170.83333333333334" height="67.24137931034483" as="geometry" />
        </mxCell>
        <mxCell id="UP6HUUTgEpxRLOeq6m76-14" value="&lt;font style=&quot;font-size: 14px&quot;&gt;&lt;b&gt;3. 渠道通路&lt;/b&gt;&lt;/font&gt;" style="text;html=1;strokeColor=none;fillColor=none;align=center;verticalAlign=middle;whiteSpace=wrap;rounded=0;" vertex="1" parent="1">
          <mxGeometry x="518.3333333333333" y="147.58620689655174" width="102.49999999999999" height="26.896551724137932" as="geometry" />
        </mxCell>
        <mxCell id="UP6HUUTgEpxRLOeq6m76-15" value="夏至生态事业群&lt;br&gt;夏至小程序&lt;br&gt;夏至电商事业群&lt;br&gt;夏至谷雨研究所" style="text;html=1;strokeColor=none;fillColor=none;align=center;verticalAlign=middle;whiteSpace=wrap;rounded=0;" vertex="1" parent="1">
          <mxGeometry x="518.3333333333333" y="174.48275862068965" width="170.83333333333334" height="94.13793103448276" as="geometry" />
        </mxCell>
        <mxCell id="UP6HUUTgEpxRLOeq6m76-16" value="&lt;font style=&quot;font-size: 14px&quot;&gt;&lt;b&gt;2. 价值主张&lt;/b&gt;&lt;/font&gt;" style="text;html=1;strokeColor=none;fillColor=none;align=center;verticalAlign=middle;whiteSpace=wrap;rounded=0;" vertex="1" parent="1">
          <mxGeometry x="358.8888888888889" y="53.44827586206897" width="102.49999999999999" height="26.896551724137932" as="geometry" />
        </mxCell>
        <mxCell id="UP6HUUTgEpxRLOeq6m76-17" value="①优质实惠商品的供应&lt;br&gt;②闲置物品及服务的供需信息整合&lt;br&gt;③在实践中进行商业模式研究及创新" style="text;html=1;strokeColor=none;fillColor=none;align=left;verticalAlign=middle;whiteSpace=wrap;rounded=0;" vertex="1" parent="1">
          <mxGeometry x="358.8888888888889" y="80.34482758620689" width="159.44444444444446" height="174.82758620689657" as="geometry" />
        </mxCell>
        <mxCell id="UP6HUUTgEpxRLOeq6m76-18" value="夏至生态事业群&lt;br&gt;夏至小程序&lt;br&gt;夏至电商事业群&lt;br&gt;夏至谷雨研究所" style="text;html=1;strokeColor=none;fillColor=none;align=center;verticalAlign=middle;whiteSpace=wrap;rounded=0;" vertex="1" parent="1">
          <mxGeometry x="182.3611111111111" y="80.34482758620689" width="170.83333333333334" height="80.6896551724138" as="geometry" />
        </mxCell>
        <mxCell id="UP6HUUTgEpxRLOeq6m76-19" value="&lt;font style=&quot;font-size: 14px&quot;&gt;&lt;b&gt;7. 关键业务&lt;/b&gt;&lt;/font&gt;" style="text;html=1;strokeColor=none;fillColor=none;align=center;verticalAlign=middle;whiteSpace=wrap;rounded=0;" vertex="1" parent="1">
          <mxGeometry x="176.66666666666666" y="53.44827586206897" width="102.49999999999999" height="26.896551724137932" as="geometry" />
        </mxCell>
        <mxCell id="UP6HUUTgEpxRLOeq6m76-20" value="&lt;span style=&quot;font-size: 14px&quot;&gt;&lt;b&gt;8. 重要合作&lt;/b&gt;&lt;/span&gt;" style="text;html=1;strokeColor=none;fillColor=none;align=center;verticalAlign=middle;whiteSpace=wrap;rounded=0;" vertex="1" parent="1">
          <mxGeometry x="40" y="53.44827586206897" width="102.49999999999999" height="26.896551724137932" as="geometry" />
        </mxCell>
        <mxCell id="UP6HUUTgEpxRLOeq6m76-21" value="&lt;font style=&quot;font-size: 14px&quot;&gt;&lt;b&gt;6. 核心资源&lt;/b&gt;&lt;/font&gt;" style="text;html=1;strokeColor=none;fillColor=none;align=center;verticalAlign=middle;whiteSpace=wrap;rounded=0;" vertex="1" parent="1">
          <mxGeometry x="176.66666666666666" y="161.0344827586207" width="102.49999999999999" height="26.896551724137932" as="geometry" />
        </mxCell>
        <mxCell id="UP6HUUTgEpxRLOeq6m76-23" value="&lt;font style=&quot;font-size: 14px&quot;&gt;&lt;b&gt;5. 收入来源&lt;/b&gt;&lt;/font&gt;" style="text;html=1;strokeColor=none;fillColor=none;align=center;verticalAlign=middle;whiteSpace=wrap;rounded=0;" vertex="1" parent="1">
          <mxGeometry x="450.0033333333333" y="268.6162068965517" width="102.49999999999999" height="26.896551724137932" as="geometry" />
        </mxCell>
        <mxCell id="UP6HUUTgEpxRLOeq6m76-24" value="&lt;font style=&quot;font-size: 14px&quot;&gt;&lt;b&gt;9. 成本结构&lt;/b&gt;&lt;/font&gt;" style="text;html=1;strokeColor=none;fillColor=none;align=center;verticalAlign=middle;whiteSpace=wrap;rounded=0;" vertex="1" parent="1">
          <mxGeometry x="40.00333333333327" y="268.6162068965517" width="102.49999999999999" height="26.896551724137932" as="geometry" />
        </mxCell>
      </root>
    </mxGraphModel>
  </diagram>
</mxfile>
